<svg aria-hidden="true" style="position:absolute;width:0;height:0;overflow:hidden" xmlns="http://www.w3.org/2000/svg">
  <defs>
    <symbol id="icon-facebook" viewBox="0 0 31 32">
      <path d="M17.718 31.214h-5.009c-.837 0-1.517-.665-1.517-1.482V18.699H8.269c-.837 0-1.517-.665-1.517-1.482V12.49c0-.817.681-1.482 1.517-1.482h2.923V8.641c0-2.347.755-4.344 2.183-5.775C14.809 1.429 16.814.669 19.172.669l3.82.006c.835.001 1.515.666 1.515 1.482v4.389c0 .817-.68 1.482-1.517 1.482l-2.572.001c-.784 0-.984.154-1.027.201-.07.078-.154.299-.154.908v1.87h3.56c.268 0 .528.065.751.186.481.263.781.759.781 1.296l-.002 4.727c0 .817-.681 1.481-1.517 1.481h-3.572v11.033c0 .817-.681 1.482-1.518 1.482zm-4.693-1.791h4.376V17.898c0-.546.455-.989 1.013-.989h4.077l.002-4.109h-4.079a1.003 1.003 0 0 1-1.013-.989V9.139c0-.7.073-1.495.614-2.093.653-.723 1.683-.806 2.401-.806l2.256-.001V2.467l-3.503-.006c-3.789 0-6.144 2.369-6.144 6.181v3.169c0 .545-.454.989-1.013.989H8.585v4.109h3.427c.558 0 1.013.444 1.013.989v11.525zm9.962-26.956z"/>
    </symbol>
    <symbol id="icon-whatsapp" viewBox="0 0 31 32">
      <path d="M26.785 5.068C23.925 2.27 20.124.73 16.08.73h-.001c-2 0-3.95.379-5.793 1.126S6.79 3.684 5.375 5.068C2.516 7.866.941 11.585.941 15.542c0 2.359.582 4.704 1.684 6.793L.08 29.448a1.342 1.342 0 0 0 .332 1.423 1.408 1.408 0 0 0 1.455.325l7.27-2.489a15.452 15.452 0 0 0 6.944 1.648c4.044 0 7.846-1.541 10.705-4.338S31.22 19.5 31.22 15.543s-1.575-7.676-4.434-10.474zM25.49 24.749c-2.514 2.459-5.856 3.814-9.41 3.814a13.58 13.58 0 0 1-6.248-1.522 1.44 1.44 0 0 0-1.125-.085l-6.605 2.262 2.312-6.462c.129-.36.097-.762-.087-1.101a12.825 12.825 0 0 1-1.556-6.112c0-3.478 1.384-6.748 3.898-9.207s5.855-3.813 9.409-3.814h.001c3.555 0 6.897 1.354 9.411 3.814s3.898 5.729 3.898 9.207c0 3.478-1.384 6.748-3.898 9.207z"/>
      <path d="M21.706 16.865a1.817 1.817 0 0 0-2.526 0l-.762.745a10.975 10.975 0 0 1-4.453-4.356l.762-.745a1.723 1.723 0 0 0 0-2.472l-2.053-2.008a1.817 1.817 0 0 0-2.526 0L8.506 9.635c-.941.92-.987 2.502-.132 4.455.743 1.695 2.102 3.559 3.827 5.246s3.63 3.018 5.363 3.744c.948.398 1.811.596 2.556.596.823 0 1.504-.242 1.997-.725l1.642-1.606a1.719 1.719 0 0 0 0-2.472l-2.053-2.009zm-.884 4.82c-.268.263-1.094.355-2.537-.25-1.524-.639-3.225-1.834-4.789-3.364s-2.786-3.194-3.439-4.685c-.619-1.412-.524-2.22-.256-2.482l1.611-1.576 1.989 1.947-.953.933a1.346 1.346 0 0 0-.259 1.592 12.782 12.782 0 0 0 5.674 5.551 1.42 1.42 0 0 0 1.627-.253l.953-.933 1.99 1.947-1.611 1.576z"/>
    </symbol>
    <symbol id="icon-instagram-2" viewBox="0 0 32 32">
      <path d="M31.969 9.408c-.075-1.7-.35-2.869-.744-3.882a7.803 7.803 0 0 0-1.85-2.838A7.867 7.867 0 0 0 26.543.844C25.524.45 24.361.175 22.661.1 20.948.019 20.404 0 16.06 0s-4.888.019-6.595.094c-1.7.075-2.869.35-3.882.744a7.803 7.803 0 0 0-2.838 1.85A7.867 7.867 0 0 0 .901 5.52C.507 6.539.232 7.702.157 9.402c-.081 1.713-.1 2.257-.1 6.601s.019 4.888.094 6.595c.075 1.7.35 2.869.744 3.882a7.895 7.895 0 0 0 1.85 2.838 7.867 7.867 0 0 0 2.832 1.844c1.019.394 2.182.669 3.882.744 1.706.075 2.25.094 6.595.094s4.888-.019 6.595-.094c1.7-.075 2.869-.35 3.882-.744a8.181 8.181 0 0 0 4.682-4.682c.394-1.019.669-2.182.744-3.882.075-1.707.094-2.25.094-6.595s-.006-4.888-.081-6.595zm-2.882 13.065c-.069 1.563-.331 2.407-.55 2.969a5.31 5.31 0 0 1-3.038 3.038c-.563.219-1.413.481-2.969.55-1.688.075-2.194.094-6.464.094s-4.782-.019-6.464-.094c-1.563-.069-2.407-.331-2.969-.55a4.926 4.926 0 0 1-1.838-1.194 4.974 4.974 0 0 1-1.194-1.838c-.219-.563-.481-1.413-.55-2.969-.075-1.688-.094-2.194-.094-6.464s.019-4.782.094-6.464c.069-1.563.331-2.407.55-2.969a4.868 4.868 0 0 1 1.2-1.838A4.974 4.974 0 0 1 6.639 3.55c.563-.219 1.413-.481 2.969-.55 1.688-.075 2.194-.094 6.464-.094 4.276 0 4.782.019 6.464.094 1.563.069 2.407.331 2.969.55a4.914 4.914 0 0 1 1.838 1.194 4.974 4.974 0 0 1 1.194 1.838c.219.563.481 1.413.55 2.969.075 1.688.094 2.194.094 6.464s-.019 4.77-.094 6.458z"/>
      <path d="M16.059 7.783c-4.538 0-8.22 3.682-8.22 8.22s3.682 8.22 8.22 8.22 8.22-3.682 8.22-8.22-3.682-8.22-8.22-8.22zm0 13.552a5.333 5.333 0 0 1 0-10.664 5.333 5.333 0 0 1 0 10.664zM26.524 7.458a1.919 1.919 0 1 1-3.838 0 1.919 1.919 0 0 1 3.838 0z"/>
    </symbol>
  </defs>
</svg>
